<svg xmlns="http://www.w3.org/2000/svg" width="512" height="512" viewBox="0 0 512 512">
  <rect width="512" height="512" rx="64" fill="#141413"/>
  <g transform="translate(-65,-65) scale(1.396)">
    <g fill="#d97757">
      <path d="M345.2659,355.341553 C337.703796,369.070007 327.555756,380.065094 315.687988,389.584808 C299.893799,402.254089 282.076141,410.759369 262.395691,415.325714 C248.779358,418.485016 235.036224,420.327179 221.049438,417.941986 C220.56189,417.858826 220.070114,417.737061 219.612442,417.553253 C217.646301,416.763641 215.692154,415.944153 213.442032,415.015137 C218.726486,409.291016 225.850479,409.533539 232.21669,407.952942 C261.463898,400.691376 287.992157,388.684967 306.522278,363.739838 C311.582336,356.92807 315.389221,348.946106 318.515656,341.006775 C321.446991,333.562805 321.419098,325.896606 318.456757,317.703003 C314.818207,307.638977 313.700317,296.692383 310.983368,286.259949 C306.517181,269.11087 296.611847,255.555817 282.548798,244.900864 C279.650085,242.704636 276.9534,240.228165 274.267151,237.767822 C268.111237,232.129639 268.841827,225.46669 276.312531,221.469025 C288.930878,214.716797 301.962402,215.379395 314.721313,220.762283 C337.630768,230.427612 350.686462,248.656189 357.160156,271.946289 C365.305939,301.252167 360.431519,328.8927 345.2659,355.341553 z"/>
      <path d="M235.914398,124.85881 C217.763962,136.574707 203.197723,151.072006 195.674057,171.348221 C193.46489,177.30188 192.324188,183.909561 192.134644,190.260483 C192.017136,194.197464 194.681931,198.192825 195.973145,202.202133 C198.029892,208.588516 200.234985,214.94249 201.92836,221.427414 C205.802383,236.263321 211.773026,249.952271 223.203949,260.574768 C228.271347,265.283813 233.649582,269.750824 239.330475,273.687256 C249.996902,281.078369 248.482086,290.16864 237.876343,294.998566 C223.046829,301.752136 208.681641,299.75708 194.923599,292.445374 C174.89682,281.802185 162.604538,264.45993 157.295975,242.969788 C148.359024,206.791367 156.170929,173.868164 179.688202,144.784912 C199.140396,120.728867 224.395538,105.897392 254.307739,99.469109 C265.01358,97.168358 276.362213,97.697052 287.43042,97.356743 C290.224518,97.270836 293.068542,98.809639 296.378082,100.775597 C293.11853,102.188042 289.96521,103.964539 286.581573,104.95179 C269.200409,110.023216 251.711731,114.768242 235.914398,124.85881 z"/>
      <path d="M135.082275,260.892212 C129.132538,245.87851 126.268326,230.600861 127.111,214.93541 C128.688751,185.604675 138.313812,159.131577 157.179199,136.323608 C167.420792,123.941696 178.803238,112.976608 194.161728,107.142929 C194.636978,107.455246 195.112228,107.767563 195.587479,108.079887 C193.53334,111.419876 191.796371,115.012321 189.37233,118.057907 C176.012741,134.842957 164.061096,152.466476 156.683456,172.781403 C143.837708,208.153275 143.867722,242.567932 165.070755,275.149658 C168.280518,280.08194 172.888229,284.073425 172.175369,290.945007 C171.470779,297.736481 168.520706,299.888184 162.597,296.750824 C152.181198,291.234436 146.130035,281.654816 140.274673,272.014008 C138.227493,268.643311 136.851471,264.864929 135.082275,260.892212 z"/>
      <path d="M373.645508,353.536072 C364.31015,371.86145 351.890289,387.212677 335.898132,399.536743 C331.719635,402.756805 326.972015,405.276825 322.329773,407.835388 C320.733215,408.715363 318.661804,408.733856 316.010193,408.162872 C317.374268,406.056488 318.550903,403.796478 320.131683,401.867706 C334.555359,384.269135 348.404053,366.272339 356.609802,344.753693 C370.329468,308.775543 371.163727,273.546509 349.010315,240.226379 C345.541138,235.008514 343.812622,229.922394 344.880768,223.935043 C345.803223,218.76416 348.781494,217.427444 353.31369,220.170303 C362.515808,225.739426 368.808502,234.06897 373.93808,243.240417 C384.747803,262.567841 388.316956,283.601044 386.872009,305.410034 C385.765045,322.118195 380.971527,338.03775 373.645508,353.536072 z"/>
    </g>
    <g fill="#d97757" opacity="0.45">
      <path d="M245.244293,170.218399 C263.707062,157.496643 284.112305,152.588821 305.763733,154.172501 C331.672943,156.067612 354.478241,165.888077 374.023071,183.405746 C397.779785,204.698471 411.614532,231.339355 416.678741,262.404602 C418.406158,273.000854 420.145081,284.269989 414.921631,294.795868 C414.645782,295.351746 414.250214,295.848267 413.265228,297.367432 C411.961029,293.963013 410.740265,291.426056 410.005157,288.755402 C403.748993,266.027405 396.761688,243.608307 381.18103,225.153961 C368.353577,209.960648 353.413177,197.906433 333.001129,194.584976 C327.607513,193.707336 322.796326,194.889481 317.605072,196.979782 C310.345337,199.902985 302.421082,201.298782 294.688354,202.899963 C276.415161,206.683762 260.890686,215.029251 248.92157,229.555801 C245.56308,233.631882 242.412384,237.898392 238.831558,241.767685 C233.145767,247.91153 226.424103,247.153549 222.147644,239.884445 C214.637024,227.11795 215.424042,213.794891 220.556778,200.576721 C225.435226,188.013397 233.892242,178.113022 245.244293,170.218399 z"/>
      <path d="M97.673981,252.376038 C94.690407,237.012573 95.987,221.697418 101.051422,215.276505 C103.221268,222.145462 105.426849,228.017166 106.928421,234.06369 C115.769188,269.663574 131.77095,300.238556 166.409103,317.12442 C173.229156,320.449127 181.224136,322.025238 188.840515,322.797363 C193.150894,323.234314 197.799744,320.41449 202.28363,319.02124 C204.307297,318.392426 206.261612,317.504639 208.313721,317.008942 C221.450851,313.835663 234.48999,310.588623 246.448151,303.805206 C256.242157,298.249451 263.533234,290.330048 270.2388,281.60202 C272.907593,278.128296 275.435516,274.352936 278.774017,271.630157 C284.503113,266.957764 289.828918,268.171875 293.535583,274.578064 C300.913422,287.329102 300.660797,300.657745 295.236847,313.867432 C285.398529,337.828186 266.514618,351.74826 242.195007,357.813599 C207.163574,366.550507 174.963089,359.038422 146.569672,336.919861 C121.511292,317.399323 105.937706,291.608032 99.030067,260.6091 C98.457977,258.041779 98.183487,255.408127 97.673981,252.376038 z"/>
      <path d="M239.756729,385.987854 C232.412125,386.639648 225.500137,387.884186 218.60257,387.808777 C194.586823,387.546326 172.156952,381.190796 151.546875,368.801514 C134.216415,358.383728 119.710449,344.969849 109.25222,327.507904 C107.433914,324.471863 106.291527,321.031006 104.836945,317.77713 C105.176605,317.353607 105.516258,316.930084 105.855919,316.506561 C108.336823,318.011841 111.021202,319.263489 113.265472,321.063782 C127.342155,332.355591 141.442459,343.526611 157.799728,351.554626 C172.967163,358.998718 188.648987,364.143158 205.520966,366.137817 C230.812119,369.127838 254.015091,363.829865 275.156372,349.87204 C279.850464,346.772888 284.120972,343.765991 290.064697,344.619751 C296.060425,345.480896 298.003754,349.165222 294.679901,354.225311 C286.26944,367.029175 273.848083,374.621735 259.930756,379.942413 C253.520584,382.393097 246.784363,383.990875 239.756729,385.987854 z"/>
      <path d="M222.189178,157.185989 C234.62085,143.195999 250.4366,135.83667 267.717407,130.994141 C280.861267,127.310875 294.383911,127.096848 307.704559,128.219345 C324.61911,129.644699 340.868011,134.488037 355.975525,142.506454 C370.733154,150.339188 383.769897,160.435196 394.619781,173.181381 C400.127777,179.652054 405.580139,186.264496 407.18811,196.72966 C402.845367,193.866089 399.459351,191.986038 396.472778,189.60495 C380.914734,177.200974 364.625305,166.012787 346.04657,158.532654 C330.801666,152.394791 314.968475,148.202682 298.548584,148.237305 C275.459869,148.286011 253.874771,154.041199 235.516312,168.96196 C231.375702,172.327209 226.611649,172.526291 221.787018,171.816116 C216.867523,171.091965 215.494339,167.588394 218.114777,163.219055 C219.302231,161.239059 220.645905,159.352768 222.189178,157.185989 z"/>
    </g>
  </g>
</svg>
